<?xml version="1.0" standalone="no"?>
<!DOCTYPE svg PUBLIC "-//W3C//DTD SVG 20010904//EN"
 "http://www.w3.org/TR/2001/REC-SVG-20010904/DTD/svg10.dtd">
<svg version="1.0" xmlns="http://www.w3.org/2000/svg"
 width="4336.000000pt" height="882.000000pt" viewBox="0 0 4336.000000 882.000000"
 preserveAspectRatio="xMidYMid meet">

<g transform="translate(0.000000,882.000000) scale(0.100000,-0.100000)"
fill="#000000" stroke="none">
<path d="M4475 8693 c-91 -19 -100 -41 -100 -248 0 -88 1 -742 3 -1454 l2
-1293 23 14 c13 9 40 58 67 120 76 178 150 287 314 466 391 426 846 646 1486
717 164 18 368 19 424 3 25 -8 59 -31 88 -59 54 -54 79 -122 100 -279 19 -146
16 -520 -5 -659 -65 -412 -244 -797 -529 -1136 -115 -136 -346 -356 -459 -438
-181 -130 -422 -232 -655 -277 -132 -25 -358 -44 -428 -36 -100 13 -156 74
-156 169 0 57 91 421 150 597 108 328 326 683 674 1100 107 127 107 130 21 60
-144 -116 -254 -220 -387 -363 -468 -506 -681 -917 -739 -1427 -13 -116 -8
-368 13 -640 10 -123 12 -395 9 -1070 -8 -1713 -8 -1675 12 -1698 28 -30 70
-34 207 -16 558 71 1032 225 1470 477 714 411 1244 970 1601 1687 453 913 547
1865 275 2798 -201 688 -519 1236 -996 1713 -532 533 -1187 908 -1883 1078
-139 35 -369 76 -472 86 -38 3 -79 7 -90 9 -11 2 -29 1 -40 -1z"/>
<path d="M31208 7050 c-116 -36 -211 -193 -225 -370 -7 -97 7 -146 99 -350
100 -221 136 -316 152 -412 46 -270 20 -858 -65 -1443 -124 -854 -310 -1275
-564 -1275 -188 0 -290 299 -345 1010 -18 223 -25 957 -11 1104 14 145 47 287
86 370 22 47 26 65 21 101 -18 117 -139 268 -267 333 -75 38 -197 66 -250 57
-99 -17 -266 -138 -287 -208 -6 -18 -13 -104 -16 -193 -14 -371 -79 -844 -202
-1469 -129 -652 -228 -989 -319 -1077 -49 -49 -121 -34 -185 39 -177 201 -270
964 -273 2248 -2 663 8 733 135 982 72 143 82 169 82 217 1 47 -3 59 -28 85
-38 39 -98 59 -222 73 -128 14 -223 1 -310 -42 -96 -47 -150 -127 -179 -268
-36 -168 -6 -1096 60 -1862 87 -997 197 -1575 354 -1859 32 -59 131 -158 203
-205 127 -81 302 -112 413 -73 196 68 380 365 510 823 41 145 138 554 186 787
12 59 25 107 29 107 3 0 12 -64 18 -142 75 -851 262 -1310 590 -1443 232 -94
446 -28 622 191 207 258 390 736 539 1409 135 607 179 1152 126 1563 -76 586
-221 1068 -352 1169 -35 27 -85 36 -125 23z"/>
<path d="M22825 6999 c-173 -23 -366 -101 -500 -201 -211 -160 -426 -456 -519
-716 -115 -323 -126 -677 -30 -970 85 -262 247 -477 535 -712 146 -119 233
-179 640 -440 189 -121 401 -266 471 -321 344 -272 444 -474 304 -614 -51 -51
-120 -79 -249 -101 -75 -13 -139 -15 -347 -11 -332 7 -535 39 -663 104 -29 14
-126 89 -217 167 -199 171 -214 181 -287 207 -125 44 -243 20 -319 -63 -49
-54 -67 -101 -67 -173 -1 -178 184 -340 548 -480 304 -117 678 -202 975 -221
267 -16 589 43 842 155 323 144 479 338 480 596 1 177 -82 337 -272 526 -116
115 -203 177 -765 553 -286 192 -550 373 -587 403 -92 75 -247 238 -309 325
-63 90 -143 251 -166 338 -14 49 -18 103 -18 220 0 181 14 245 80 387 120 255
307 428 521 483 87 23 232 27 316 9 294 -61 458 -363 458 -845 0 -100 -6 -151
-35 -290 -57 -276 -48 -343 62 -452 69 -69 119 -94 195 -100 123 -9 224 58
287 193 70 147 98 347 68 486 -18 83 -46 262 -77 484 -33 243 -90 410 -192
567 -170 260 -444 437 -765 493 -110 19 -309 26 -398 14z"/>
<path d="M36425 6891 c-49 -12 -74 -30 -79 -54 -3 -12 -7 -283 -11 -602 -5
-539 -18 -967 -31 -1007 -4 -14 -20 -6 -87 45 -355 271 -689 271 -953 0 -233
-239 -441 -757 -520 -1298 -13 -86 -18 -183 -18 -345 0 -249 14 -347 74 -511
103 -282 313 -485 579 -558 326 -90 620 -16 878 222 l42 38 6 -38 c31 -182
138 -309 295 -349 53 -13 73 -14 116 -5 55 13 123 63 165 122 l21 30 -21 57
c-53 147 -85 336 -102 610 -13 201 -9 365 36 1407 44 1012 48 1069 98 1350 50
281 60 355 60 480 1 136 -21 201 -89 270 -49 48 -157 105 -236 124 -64 15
-186 22 -223 12z m-438 -1974 c107 -55 201 -187 255 -357 22 -71 23 -90 22
-330 0 -273 -11 -384 -59 -595 -66 -291 -169 -500 -298 -604 -23 -18 -71 -48
-107 -65 -61 -29 -72 -31 -175 -31 -103 0 -113 2 -164 30 -137 76 -199 235
-209 531 -8 267 23 519 98 812 95 364 215 566 376 627 63 24 196 15 261 -18z"/>
<path d="M27082 6334 c-69 -18 -99 -35 -145 -79 -63 -62 -82 -107 -82 -205 0
-106 23 -160 98 -233 202 -198 512 -187 614 21 24 48 28 69 28 137 -1 66 -6
91 -28 140 -51 109 -176 199 -311 224 -76 14 -108 13 -174 -5z"/>
<path d="M42352 6334 c-69 -18 -99 -35 -145 -79 -63 -62 -82 -107 -82 -205 0
-106 23 -160 98 -233 202 -198 512 -187 614 21 24 48 28 69 28 137 -1 66 -6
91 -28 140 -51 109 -176 199 -311 224 -76 14 -108 13 -174 -5z"/>
<path d="M25735 5340 c-106 -22 -192 -70 -277 -154 l-47 -47 -48 50 c-65 66
-126 85 -267 79 -167 -7 -248 -57 -282 -176 -16 -52 -16 -88 -5 -427 6 -203
18 -500 26 -660 8 -159 19 -438 24 -620 10 -311 9 -334 -10 -418 -22 -100 -16
-174 20 -244 86 -170 403 -190 544 -34 58 65 60 113 6 248 -36 91 -47 180 -55
445 -7 229 6 512 32 687 43 289 190 713 282 807 28 29 40 34 78 34 115 0 195
-87 210 -228 12 -107 88 -182 194 -190 73 -5 134 21 201 88 72 72 79 87 81
176 3 75 0 85 -34 155 -70 138 -209 300 -309 356 -110 63 -266 94 -364 73z"/>
<path d="M40995 5340 c-106 -22 -192 -70 -277 -154 l-47 -47 -48 50 c-65 66
-126 85 -267 79 -167 -7 -248 -57 -282 -176 -16 -52 -16 -88 -5 -427 6 -203
18 -500 26 -660 8 -159 19 -438 24 -620 10 -311 9 -334 -10 -418 -22 -100 -16
-174 20 -244 86 -170 403 -190 544 -34 58 65 60 113 6 248 -36 91 -47 180 -55
445 -7 229 6 512 32 687 43 291 193 718 284 810 26 25 39 31 76 31 115 0 195
-87 210 -228 12 -107 88 -182 194 -190 73 -5 134 21 201 88 72 72 79 87 81
176 3 75 0 85 -34 155 -70 138 -209 300 -309 356 -110 63 -266 94 -364 73z"/>
<path d="M33055 5326 c-148 -37 -262 -132 -385 -321 -152 -234 -302 -648 -371
-1030 -30 -161 -33 -519 -6 -665 94 -511 360 -750 872 -785 312 -21 736 84
972 241 145 96 222 211 230 342 5 84 -8 110 -71 141 -40 20 -65 25 -135 25
-83 1 -90 -1 -181 -45 -52 -26 -144 -74 -205 -108 -135 -75 -242 -118 -360
-142 -112 -23 -255 -25 -318 -3 -130 44 -226 208 -256 434 -14 106 -23 220
-18 220 3 0 42 -20 88 -44 140 -74 198 -89 309 -82 368 25 672 152 872 365
116 123 180 263 196 431 23 227 -57 411 -265 611 -234 223 -534 385 -776 418
-96 13 -128 13 -192 -3z m420 -510 c94 -44 180 -161 220 -300 27 -91 18 -263
-17 -337 -70 -152 -232 -227 -467 -217 -116 5 -176 31 -240 104 -58 66 -76
131 -67 249 18 257 133 445 309 506 79 28 198 25 262 -5z"/>
<path d="M26963 5298 c-58 -13 -83 -46 -83 -112 0 -28 -7 -118 -15 -201 -51
-535 -45 -1173 20 -1921 22 -255 63 -361 168 -431 55 -37 91 -49 193 -64 96
-15 141 -2 206 61 42 41 50 53 46 77 -3 15 -17 86 -32 156 l-27 128 4 787 3
787 36 150 c81 336 78 402 -22 474 -53 39 -190 87 -297 106 -95 17 -138 17
-200 3z"/>
<path d="M42233 5298 c-58 -13 -83 -46 -83 -112 0 -28 -7 -118 -15 -201 -51
-535 -45 -1173 20 -1921 22 -255 63 -361 168 -431 55 -37 91 -49 193 -64 96
-15 141 -2 206 61 42 41 50 53 46 77 -3 15 -17 86 -32 156 l-27 128 4 787 3
787 36 150 c81 336 78 402 -22 474 -53 39 -190 87 -297 106 -95 17 -138 17
-200 3z"/>
<path d="M38205 5290 c-206 -29 -377 -113 -518 -256 -140 -141 -210 -306 -211
-500 -1 -95 1 -103 29 -150 43 -68 150 -148 231 -170 52 -14 70 -15 112 -4 77
18 93 42 103 152 12 123 26 181 59 248 79 158 252 238 489 228 76 -3 107 -9
151 -29 180 -84 259 -298 260 -701 l0 -136 -352 -5 c-384 -4 -406 -7 -588 -73
-252 -90 -536 -291 -643 -454 -118 -180 -107 -382 31 -557 108 -135 370 -274
610 -322 308 -62 583 -22 939 136 9 4 11 -11 6 -59 -7 -82 11 -166 47 -216 57
-79 209 -120 334 -89 129 32 158 75 180 267 27 228 38 571 33 1010 -3 369 -7
443 -25 558 -118 741 -468 1101 -1098 1126 -65 3 -146 1 -179 -4z m636 -1728
c131 -81 63 -310 -131 -442 -77 -53 -163 -94 -250 -122 -65 -20 -96 -23 -225
-23 -185 0 -244 15 -309 78 -57 55 -73 107 -58 196 27 163 173 268 442 315
122 22 147 24 330 22 153 -1 168 -3 201 -24z"/>
<path d="M1470 5147 c-8 -7 -22 -21 -30 -32 -8 -11 0 -7 18 9 29 27 37 37 30
36 -2 0 -10 -6 -18 -13z"/>
<path d="M19628 4623 c-10 -2 -18 -14 -18 -25 0 -12 1 -19 3 -17 1 2 11 14 21
27 11 12 17 21 15 21 -2 -1 -12 -3 -21 -6z"/>
<path d="M12875 4570 c-16 -16 -24 -30 -19 -30 6 0 20 14 32 30 13 17 21 30
19 30 -2 0 -16 -13 -32 -30z"/>
<path d="M11055 4129 c-11 -17 1 -21 15 -4 8 9 8 15 2 15 -6 0 -14 -5 -17 -11z"/>
<path d="M29766 3963 c-6 -14 -5 -15 5 -6 7 7 10 15 7 18 -3 3 -9 -2 -12 -12z"/>
<path d="M11057 2629 c-4 -16 -3 -18 9 -8 7 6 11 15 8 20 -8 13 -11 11 -17
-12z"/>
<path d="M15670 2604 c0 -8 5 -12 10 -9 6 4 8 11 5 16 -9 14 -15 11 -15 -7z"/>
</g>
</svg>
